<?xml version="1.0" standalone="no"?>
<!DOCTYPE svg PUBLIC "-//W3C//DTD SVG 20010904//EN"
 "http://www.w3.org/TR/2001/REC-SVG-20010904/DTD/svg10.dtd">
<svg version="1.0" xmlns="http://www.w3.org/2000/svg"
 width="2389.000000pt" height="2389.000000pt" viewBox="0 0 2389.000000 2389.000000"
 preserveAspectRatio="xMidYMid meet">
<metadata>
Created by potrace 1.14, written by Peter Selinger 2001-2017
</metadata>
<g transform="translate(0.000000,2389.000000) scale(0.100000,-0.100000)"
fill="#000000" stroke="none">
<path d="M11750 18800 c-58 -5 -151 -18 -208 -29 -199 -41 -262 -71 -731 -345
-7397 -4324 -10445 -6112 -10500 -6158 -73 -60 -129 -136 -157 -212 -27 -74
-25 -211 5 -287 46 -120 149 -243 276 -334 88 -63 10656 -6242 10752 -6287
428 -201 1035 -224 1422 -54 66 29 10738 6264 10897 6367 73 47 173 149 202
205 81 159 63 327 -52 488 -51 71 -133 150 -215 205 -68 47 -10563 6187
-10676 6247 -273 144 -668 220 -1015 194z m495 -960 c129 -27 284 -79 375
-125 108 -55 9247 -5402 9305 -5445 79 -58 170 -163 206 -235 44 -91 52 -201
19 -288 -27 -72 -116 -170 -203 -225 -34 -21 -2161 -1267 -4727 -2768 -3538
-2069 -4687 -2737 -4754 -2762 -155 -58 -264 -76 -481 -76 -154 0 -212 4 -307
22 -143 27 -298 77 -405 131 -92 46 -9163 5350 -9263 5415 -136 90 -232 201
-272 313 -28 81 -22 187 15 267 62 135 -307 -88 4868 2938 2593 1516 4741
2767 4774 2781 70 29 159 54 265 73 118 21 457 12 585 -16z"/>
<path d="M12440 17144 c-198 -39 -339 -181 -372 -376 -8 -46 -6 -356 6 -1123
9 -583 34 -2275 56 -3760 22 -1485 44 -2986 49 -3335 6 -349 12 -731 13 -849
l3 -213 -110 -64 c-60 -35 -116 -64 -123 -64 -7 0 -50 25 -95 55 l-83 55 -12
1063 c-12 1040 -22 1604 -62 3722 -43 2296 -60 3381 -60 3990 0 226 -5 440 -9
477 -13 97 -58 188 -129 256 -153 149 -382 184 -564 85 -56 -31 -168 -145
-197 -200 -37 -73 -325 -896 -811 -2318 -408 -1192 -570 -1661 -715 -2070 -64
-181 -128 -363 -142 -403 -14 -40 -26 -72 -28 -70 -3 4 -227 517 -678 1553
-470 1081 -523 1201 -553 1252 -75 129 -289 213 -471 185 -185 -29 -315 -139
-374 -317 -11 -33 -15 -440 -19 -2241 l-5 -2201 -295 164 c-162 91 -671 372
-1130 625 -965 533 -1602 887 -1612 896 -8 8 247 156 1016 589 1011 570 1050
595 1109 696 131 224 30 530 -211 645 -66 32 -88 37 -167 40 -112 5 -191 -13
-290 -67 -74 -40 -1076 -609 -2068 -1173 -329 -187 -615 -354 -637 -369 -56
-41 -125 -138 -149 -211 -75 -225 6 -444 203 -552 34 -18 216 -118 406 -221
432 -236 731 -402 1840 -1025 1413 -794 2080 -1163 2250 -1244 77 -37 92 -41
181 -44 79 -4 111 0 166 16 146 45 255 148 312 295 14 38 17 195 21 1508 l5
1466 74 -166 c41 -91 187 -429 326 -751 414 -961 405 -941 485 -1013 171 -154
446 -158 627 -10 88 73 98 95 341 798 126 363 397 1146 603 1741 l374 1081 7
-126 c7 -135 15 -672 53 -3451 37 -2693 45 -3159 56 -3230 14 -96 59 -180 127
-240 31 -27 206 -148 387 -268 363 -239 405 -260 550 -269 135 -9 214 17 440
145 104 60 277 158 383 218 270 152 348 228 388 378 25 91 22 416 -46 4366
-11 630 -24 1460 -29 1845 -6 385 -13 867 -17 1070 -3 204 -4 368 -1 365 7 -7
445 -824 1362 -2540 1239 -2318 1595 -2982 1627 -3033 86 -136 263 -220 426
-202 205 22 361 149 419 340 17 57 17 161 15 2238 -2 1197 0 2177 5 2177 5 0
17 -6 28 -14 39 -26 750 -439 1545 -896 826 -475 1500 -866 1512 -878 4 -4
-138 -83 -315 -176 -177 -93 -500 -264 -717 -379 -705 -375 -709 -377 -778
-516 -32 -65 -37 -84 -40 -166 -8 -175 56 -315 183 -399 120 -80 274 -113 390
-83 42 11 376 183 1070 552 1565 831 1474 780 1550 883 58 79 79 144 78 247 0
130 -41 229 -136 332 -42 46 -135 103 -932 575 -2004 1186 -3630 2123 -3763
2168 -81 27 -206 29 -288 5 -140 -40 -247 -136 -306 -276 l-23 -54 -5 -1665
-5 -1664 -84 159 c-204 387 -764 1433 -1381 2580 -795 1477 -969 1802 -1294
2415 -261 492 -282 523 -387 590 -25 17 -72 39 -105 50 -58 21 -193 34 -244
24z"/>
</g>
</svg>
